<svg width="281" height="72" viewBox="0 0 281 72" fill="none" xmlns="http://www.w3.org/2000/svg">
<rect x="91" width="190" height="72" rx="26" fill="#FF0000"/>
<path d="M34.8086 41.7383C34.4987 46.0221 32.9128 49.3945 30.0508 51.8555C27.207 54.3164 23.4518 55.5469 18.7852 55.5469C13.681 55.5469 9.66146 53.8333 6.72656 50.4062C3.8099 46.9609 2.35156 42.2396 2.35156 36.2422V33.8086C2.35156 29.9805 3.02604 26.6081 4.375 23.6914C5.72396 20.7747 7.64714 18.5417 10.1445 16.9922C12.6602 15.4245 15.5768 14.6406 18.8945 14.6406C23.4883 14.6406 27.1888 15.8711 29.9961 18.332C32.8034 20.793 34.4258 24.2474 34.8633 28.6953H26.6602C26.4596 26.125 25.7396 24.2656 24.5 23.1172C23.2786 21.9505 21.4102 21.3672 18.8945 21.3672C16.1602 21.3672 14.1094 22.3516 12.7422 24.3203C11.3932 26.2708 10.7005 29.306 10.6641 33.4258V36.4336C10.6641 40.7357 11.3112 43.8802 12.6055 45.8672C13.918 47.8542 15.9779 48.8477 18.7852 48.8477C21.319 48.8477 23.2057 48.2734 24.4453 47.125C25.7031 45.9583 26.4232 44.1628 26.6055 41.7383H34.8086ZM56.8203 55C56.4557 54.2891 56.1914 53.4049 56.0273 52.3477C54.1133 54.4805 51.625 55.5469 48.5625 55.5469C45.6641 55.5469 43.2578 54.7083 41.3438 53.0312C39.4479 51.3542 38.5 49.2396 38.5 46.6875C38.5 43.5521 39.6576 41.1458 41.9727 39.4688C44.306 37.7917 47.6693 36.944 52.0625 36.9258H55.6992V35.2305C55.6992 33.8633 55.3438 32.7695 54.6328 31.9492C53.9401 31.1289 52.8372 30.7188 51.3242 30.7188C49.9935 30.7188 48.9453 31.0378 48.1797 31.6758C47.4323 32.3138 47.0586 33.1888 47.0586 34.3008H39.1562C39.1562 32.5872 39.6849 31.0013 40.7422 29.543C41.7995 28.0846 43.2943 26.9453 45.2266 26.125C47.1589 25.2865 49.3281 24.8672 51.7344 24.8672C55.3802 24.8672 58.2695 25.7878 60.4023 27.6289C62.5534 29.4518 63.6289 32.0221 63.6289 35.3398V48.1641C63.6471 50.9714 64.0391 53.0951 64.8047 54.5352V55H56.8203ZM50.2852 49.5039C51.4518 49.5039 52.5273 49.2487 53.5117 48.7383C54.4961 48.2096 55.2253 47.5078 55.6992 46.6328V41.5469H52.7461C48.7904 41.5469 46.6849 42.9141 46.4297 45.6484L46.4023 46.1133C46.4023 47.0977 46.7487 47.9089 47.4414 48.5469C48.1341 49.1849 49.082 49.5039 50.2852 49.5039ZM79.1602 18.1406V25.4141H84.2188V31.2109H79.1602V45.9766C79.1602 47.0703 79.3698 47.8542 79.7891 48.3281C80.2083 48.8021 81.0104 49.0391 82.1953 49.0391C83.0703 49.0391 83.8451 48.9753 84.5195 48.8477V54.8359C82.9701 55.3099 81.375 55.5469 79.7344 55.5469C74.1927 55.5469 71.3672 52.7487 71.2578 47.1523V31.2109H66.9375V25.4141H71.2578V18.1406H79.1602Z" fill="black"/>
<path d="M117.797 45.1289L126.82 15.1875H135.953L122.09 55H113.531L99.7227 15.1875H108.828L117.797 45.1289ZM147.547 55H139.617V25.4141H147.547V55ZM139.152 17.7578C139.152 16.5729 139.544 15.5977 140.328 14.832C141.13 14.0664 142.215 13.6836 143.582 13.6836C144.931 13.6836 146.007 14.0664 146.809 14.832C147.611 15.5977 148.012 16.5729 148.012 17.7578C148.012 18.9609 147.602 19.9453 146.781 20.7109C145.979 21.4766 144.913 21.8594 143.582 21.8594C142.251 21.8594 141.176 21.4766 140.355 20.7109C139.553 19.9453 139.152 18.9609 139.152 17.7578ZM152.852 39.9883C152.852 35.3763 153.882 31.7031 155.941 28.9688C158.02 26.2344 160.854 24.8672 164.445 24.8672C167.326 24.8672 169.704 25.9427 171.582 28.0938V13H179.512V55H172.375L171.992 51.8555C170.023 54.3164 167.49 55.5469 164.391 55.5469C160.909 55.5469 158.111 54.1797 155.996 51.4453C153.9 48.6927 152.852 44.8737 152.852 39.9883ZM160.754 40.5625C160.754 43.3333 161.237 45.457 162.203 46.9336C163.169 48.4102 164.573 49.1484 166.414 49.1484C168.857 49.1484 170.579 48.1185 171.582 46.0586V34.3828C170.598 32.3229 168.893 31.293 166.469 31.293C162.659 31.293 160.754 34.3828 160.754 40.5625ZM199.254 55.5469C194.915 55.5469 191.379 54.2161 188.645 51.5547C185.928 48.8932 184.57 45.3477 184.57 40.918V40.1523C184.57 37.181 185.145 34.5286 186.293 32.1953C187.441 29.8438 189.064 28.0391 191.16 26.7812C193.275 25.5052 195.681 24.8672 198.379 24.8672C202.426 24.8672 205.607 26.1432 207.922 28.6953C210.255 31.2474 211.422 34.8659 211.422 39.5508V42.7773H192.582C192.837 44.7096 193.603 46.2591 194.879 47.4258C196.173 48.5924 197.805 49.1758 199.773 49.1758C202.818 49.1758 205.197 48.0729 206.91 45.8672L210.793 50.2148C209.608 51.8919 208.004 53.2044 205.98 54.1523C203.957 55.082 201.715 55.5469 199.254 55.5469ZM198.352 31.2656C196.784 31.2656 195.508 31.7943 194.523 32.8516C193.557 33.9089 192.938 35.4219 192.664 37.3906H203.656V36.7617C203.62 35.0117 203.146 33.6628 202.234 32.7148C201.323 31.7487 200.029 31.2656 198.352 31.2656ZM214.703 39.9336C214.703 36.9987 215.268 34.3828 216.398 32.0859C217.529 29.7891 219.151 28.0117 221.266 26.7539C223.398 25.4961 225.868 24.8672 228.676 24.8672C232.668 24.8672 235.922 26.0885 238.438 28.5312C240.971 30.974 242.384 34.2917 242.676 38.4844L242.73 40.5078C242.73 45.0469 241.464 48.6927 238.93 51.4453C236.396 54.1797 232.996 55.5469 228.73 55.5469C224.465 55.5469 221.056 54.1797 218.504 51.4453C215.97 48.7109 214.703 44.9922 214.703 40.2891V39.9336ZM222.605 40.5078C222.605 43.3151 223.134 45.4661 224.191 46.9609C225.249 48.4375 226.762 49.1758 228.73 49.1758C230.645 49.1758 232.139 48.4466 233.215 46.9883C234.29 45.5117 234.828 43.1602 234.828 39.9336C234.828 37.181 234.29 35.0482 233.215 33.5352C232.139 32.0221 230.626 31.2656 228.676 31.2656C226.743 31.2656 225.249 32.0221 224.191 33.5352C223.134 35.0299 222.605 37.3542 222.605 40.5078ZM263.621 46.8242C263.621 45.8581 263.138 45.1016 262.172 44.5547C261.224 43.9896 259.693 43.4883 257.578 43.0508C250.542 41.5742 247.023 38.5846 247.023 34.082C247.023 31.457 248.108 29.2695 250.277 27.5195C252.465 25.7513 255.318 24.8672 258.836 24.8672C262.591 24.8672 265.59 25.7513 267.832 27.5195C270.092 29.2878 271.223 31.5846 271.223 34.4102H263.32C263.32 33.2799 262.956 32.3503 262.227 31.6211C261.497 30.8737 260.358 30.5 258.809 30.5C257.478 30.5 256.448 30.8008 255.719 31.4023C254.99 32.0039 254.625 32.7695 254.625 33.6992C254.625 34.5742 255.035 35.2852 255.855 35.832C256.694 36.3607 258.098 36.8255 260.066 37.2266C262.035 37.6094 263.694 38.0469 265.043 38.5391C269.217 40.0703 271.305 42.7227 271.305 46.4961C271.305 49.194 270.147 51.3815 267.832 53.0586C265.517 54.7174 262.527 55.5469 258.863 55.5469C256.384 55.5469 254.178 55.1094 252.246 54.2344C250.332 53.3411 248.828 52.1289 247.734 50.5977C246.641 49.0482 246.094 47.3802 246.094 45.5938H253.586C253.659 46.9974 254.178 48.0729 255.145 48.8203C256.111 49.5677 257.405 49.9414 259.027 49.9414C260.54 49.9414 261.68 49.6589 262.445 49.0938C263.229 48.5104 263.621 47.7539 263.621 46.8242Z" fill="white"/>
</svg>
