<svg width="500" height="963" viewBox="0 0 500 963" fill="none" xmlns="http://www.w3.org/2000/svg">
<rect x="30" y="768" width="190" height="190" rx="25" fill="#19313A" stroke="#19313A" stroke-width="10"/>
<rect x="30" y="577" width="190" height="190" rx="25" fill="#19313A" stroke="#19313A" stroke-width="10"/>
<rect x="30" y="386" width="190" height="190" rx="25" fill="#19313A" stroke="#19313A" stroke-width="10"/>
<rect x="30" y="195" width="190" height="190" rx="25" fill="#19313A" stroke="#19313A" stroke-width="10"/>
<rect x="30" y="5" width="190" height="190" rx="25" fill="#19313A" stroke="#19313A" stroke-width="10"/>
<rect y="356" width="500" height="250" rx="30" fill="#E6E6E6"/>
<rect x="65" y="452" width="120" height="120" rx="15" fill="#19313A"/>
<path d="M105.578 425.211H92.0781V434.352H107.922V440H85.0469V405.875H107.875V411.57H92.0781V419.703H105.578V425.211ZM119.711 408.406V414.641H124.047V419.609H119.711V432.266C119.711 433.203 119.891 433.875 120.25 434.281C120.609 434.688 121.297 434.891 122.312 434.891C123.062 434.891 123.727 434.836 124.305 434.727V439.859C122.977 440.266 121.609 440.469 120.203 440.469C115.453 440.469 113.031 438.07 112.938 433.273V419.609H109.234V414.641H112.938V408.406H119.711ZM142.516 440C142.203 439.391 141.977 438.633 141.836 437.727C140.195 439.555 138.062 440.469 135.438 440.469C132.953 440.469 130.891 439.75 129.25 438.312C127.625 436.875 126.812 435.062 126.812 432.875C126.812 430.188 127.805 428.125 129.789 426.688C131.789 425.25 134.672 424.523 138.438 424.508H141.555V423.055C141.555 421.883 141.25 420.945 140.641 420.242C140.047 419.539 139.102 419.188 137.805 419.188C136.664 419.188 135.766 419.461 135.109 420.008C134.469 420.555 134.148 421.305 134.148 422.258H127.375C127.375 420.789 127.828 419.43 128.734 418.18C129.641 416.93 130.922 415.953 132.578 415.25C134.234 414.531 136.094 414.172 138.156 414.172C141.281 414.172 143.758 414.961 145.586 416.539C147.43 418.102 148.352 420.305 148.352 423.148V434.141C148.367 436.547 148.703 438.367 149.359 439.602V440H142.516ZM136.914 435.289C137.914 435.289 138.836 435.07 139.68 434.633C140.523 434.18 141.148 433.578 141.555 432.828V428.469H139.023C135.633 428.469 133.828 429.641 133.609 431.984L133.586 432.383C133.586 433.227 133.883 433.922 134.477 434.469C135.07 435.016 135.883 435.289 136.914 435.289ZM161.664 408.406V414.641H166V419.609H161.664V432.266C161.664 433.203 161.844 433.875 162.203 434.281C162.562 434.688 163.25 434.891 164.266 434.891C165.016 434.891 165.68 434.836 166.258 434.727V439.859C164.93 440.266 163.562 440.469 162.156 440.469C157.406 440.469 154.984 438.07 154.891 433.273V419.609H151.188V414.641H154.891V408.406H161.664Z" fill="#19313A"/>
<path d="M228.078 512.977V525H221.047V490.875H234.359C236.922 490.875 239.172 491.344 241.109 492.281C243.062 493.219 244.562 494.555 245.609 496.289C246.656 498.008 247.18 499.969 247.18 502.172C247.18 505.516 246.031 508.156 243.734 510.094C241.453 512.016 238.289 512.977 234.242 512.977H228.078ZM228.078 507.281H234.359C236.219 507.281 237.633 506.844 238.602 505.969C239.586 505.094 240.078 503.844 240.078 502.219C240.078 500.547 239.586 499.195 238.602 498.164C237.617 497.133 236.258 496.602 234.523 496.57H228.078V507.281ZM265.836 505.992C264.914 505.867 264.102 505.805 263.398 505.805C260.836 505.805 259.156 506.672 258.359 508.406V525H251.586V499.641H257.984L258.172 502.664C259.531 500.336 261.414 499.172 263.82 499.172C264.57 499.172 265.273 499.273 265.93 499.477L265.836 505.992ZM267.219 512.086C267.219 509.57 267.703 507.328 268.672 505.359C269.641 503.391 271.031 501.867 272.844 500.789C274.672 499.711 276.789 499.172 279.195 499.172C282.617 499.172 285.406 500.219 287.562 502.312C289.734 504.406 290.945 507.25 291.195 510.844L291.242 512.578C291.242 516.469 290.156 519.594 287.984 521.953C285.812 524.297 282.898 525.469 279.242 525.469C275.586 525.469 272.664 524.297 270.477 521.953C268.305 519.609 267.219 516.422 267.219 512.391V512.086ZM273.992 512.578C273.992 514.984 274.445 516.828 275.352 518.109C276.258 519.375 277.555 520.008 279.242 520.008C280.883 520.008 282.164 519.383 283.086 518.133C284.008 516.867 284.469 514.852 284.469 512.086C284.469 509.727 284.008 507.898 283.086 506.602C282.164 505.305 280.867 504.656 279.195 504.656C277.539 504.656 276.258 505.305 275.352 506.602C274.445 507.883 273.992 509.875 273.992 512.578ZM294.43 512.133C294.43 508.242 295.352 505.109 297.195 502.734C299.055 500.359 301.555 499.172 304.695 499.172C307.477 499.172 309.641 500.125 311.188 502.031L311.469 499.641H317.609V524.156C317.609 526.375 317.102 528.305 316.086 529.945C315.086 531.586 313.672 532.836 311.844 533.695C310.016 534.555 307.875 534.984 305.422 534.984C303.562 534.984 301.75 534.609 299.984 533.859C298.219 533.125 296.883 532.172 295.977 531L298.977 526.875C300.664 528.766 302.711 529.711 305.117 529.711C306.914 529.711 308.312 529.227 309.312 528.258C310.312 527.305 310.812 525.945 310.812 524.18V522.82C309.25 524.586 307.195 525.469 304.648 525.469C301.602 525.469 299.133 524.281 297.242 521.906C295.367 519.516 294.43 516.352 294.43 512.414V512.133ZM301.203 512.625C301.203 514.922 301.664 516.727 302.586 518.039C303.508 519.336 304.773 519.984 306.383 519.984C308.445 519.984 309.922 519.211 310.812 517.664V507C309.906 505.453 308.445 504.68 306.43 504.68C304.805 504.68 303.523 505.344 302.586 506.672C301.664 508 301.203 509.984 301.203 512.625ZM337.086 505.992C336.164 505.867 335.352 505.805 334.648 505.805C332.086 505.805 330.406 506.672 329.609 508.406V525H322.836V499.641H329.234L329.422 502.664C330.781 500.336 332.664 499.172 335.07 499.172C335.82 499.172 336.523 499.273 337.18 499.477L337.086 505.992ZM354.359 525C354.047 524.391 353.82 523.633 353.68 522.727C352.039 524.555 349.906 525.469 347.281 525.469C344.797 525.469 342.734 524.75 341.094 523.312C339.469 521.875 338.656 520.062 338.656 517.875C338.656 515.188 339.648 513.125 341.633 511.688C343.633 510.25 346.516 509.523 350.281 509.508H353.398V508.055C353.398 506.883 353.094 505.945 352.484 505.242C351.891 504.539 350.945 504.188 349.648 504.188C348.508 504.188 347.609 504.461 346.953 505.008C346.312 505.555 345.992 506.305 345.992 507.258H339.219C339.219 505.789 339.672 504.43 340.578 503.18C341.484 501.93 342.766 500.953 344.422 500.25C346.078 499.531 347.938 499.172 350 499.172C353.125 499.172 355.602 499.961 357.43 501.539C359.273 503.102 360.195 505.305 360.195 508.148V519.141C360.211 521.547 360.547 523.367 361.203 524.602V525H354.359ZM348.758 520.289C349.758 520.289 350.68 520.07 351.523 519.633C352.367 519.18 352.992 518.578 353.398 517.828V513.469H350.867C347.477 513.469 345.672 514.641 345.453 516.984L345.43 517.383C345.43 518.227 345.727 518.922 346.32 519.469C346.914 520.016 347.727 520.289 348.758 520.289ZM371.75 499.641L371.961 502.477C373.758 500.273 376.188 499.172 379.25 499.172C382.516 499.172 384.758 500.461 385.977 503.039C387.758 500.461 390.297 499.172 393.594 499.172C396.344 499.172 398.391 499.977 399.734 501.586C401.078 503.18 401.75 505.586 401.75 508.805V525H394.953V508.828C394.953 507.391 394.672 506.344 394.109 505.688C393.547 505.016 392.555 504.68 391.133 504.68C389.102 504.68 387.695 505.648 386.914 507.586L386.938 525H380.164V508.852C380.164 507.383 379.875 506.32 379.297 505.664C378.719 505.008 377.734 504.68 376.344 504.68C374.422 504.68 373.031 505.477 372.172 507.07V525H365.398V499.641H371.75ZM413.328 499.641L413.539 502.477C415.336 500.273 417.766 499.172 420.828 499.172C424.094 499.172 426.336 500.461 427.555 503.039C429.336 500.461 431.875 499.172 435.172 499.172C437.922 499.172 439.969 499.977 441.312 501.586C442.656 503.18 443.328 505.586 443.328 508.805V525H436.531V508.828C436.531 507.391 436.25 506.344 435.688 505.688C435.125 505.016 434.133 504.68 432.711 504.68C430.68 504.68 429.273 505.648 428.492 507.586L428.516 525H421.742V508.852C421.742 507.383 421.453 506.32 420.875 505.664C420.297 505.008 419.312 504.68 417.922 504.68C416 504.68 414.609 505.477 413.75 507.07V525H406.977V499.641H413.328ZM460.227 525.469C456.508 525.469 453.477 524.328 451.133 522.047C448.805 519.766 447.641 516.727 447.641 512.93V512.273C447.641 509.727 448.133 507.453 449.117 505.453C450.102 503.438 451.492 501.891 453.289 500.812C455.102 499.719 457.164 499.172 459.477 499.172C462.945 499.172 465.672 500.266 467.656 502.453C469.656 504.641 470.656 507.742 470.656 511.758V514.523H454.508C454.727 516.18 455.383 517.508 456.477 518.508C457.586 519.508 458.984 520.008 460.672 520.008C463.281 520.008 465.32 519.062 466.789 517.172L470.117 520.898C469.102 522.336 467.727 523.461 465.992 524.273C464.258 525.07 462.336 525.469 460.227 525.469ZM459.453 504.656C458.109 504.656 457.016 505.109 456.172 506.016C455.344 506.922 454.812 508.219 454.578 509.906H464V509.367C463.969 507.867 463.562 506.711 462.781 505.898C462 505.07 460.891 504.656 459.453 504.656Z" fill="#19313A"/>
<path d="M132.16 537H122V497.836L109.871 501.598V493.336L131.07 485.742H132.16V537Z" fill="#E6E6E6"/>
<path d="M111.195 296.941V327H93.6172V241.688H126.898C133.305 241.688 138.93 242.859 143.773 245.203C148.656 247.547 152.406 250.887 155.023 255.223C157.641 259.52 158.949 264.422 158.949 269.93C158.949 278.289 156.078 284.891 150.336 289.734C144.633 294.539 136.723 296.941 126.605 296.941H111.195ZM111.195 282.703H126.898C131.547 282.703 135.082 281.609 137.504 279.422C139.965 277.234 141.195 274.109 141.195 270.047C141.195 265.867 139.965 262.488 137.504 259.91C135.043 257.332 131.645 256.004 127.309 255.926H111.195V282.703Z" fill="#E6E6E6"/>
<path d="M141.898 109.891H151.566V123.543H141.898V142H124.965V123.543H89.9844L89.2227 112.879L124.789 56.6875H141.898V109.891ZM106.098 109.891H124.965V79.7734L123.852 81.707L106.098 109.891Z" fill="#E6E6E6"/>
<path d="M68.2305 854H62.957L52.6914 837.16V854H47.418V828.406H52.6914L62.9746 845.281V828.406H68.2305V854ZM73.9609 836.264L71.5703 834.875C72.5781 833.293 73.0996 831.658 73.1348 829.971V827H77.1777V829.725C77.1777 830.779 76.8848 831.922 76.2988 833.152C75.7129 834.383 74.9336 835.42 73.9609 836.264ZM86.125 854H81.0273V834.98H86.125V854ZM80.7285 830.059C80.7285 829.297 80.9805 828.67 81.4844 828.178C82 827.686 82.6973 827.439 83.5762 827.439C84.4434 827.439 85.1348 827.686 85.6504 828.178C86.166 828.67 86.4238 829.297 86.4238 830.059C86.4238 830.832 86.1602 831.465 85.6328 831.957C85.1172 832.449 84.4316 832.695 83.5762 832.695C82.7207 832.695 82.0293 832.449 81.502 831.957C80.9863 831.465 80.7285 830.832 80.7285 830.059ZM95.0898 834.98L95.248 837.107C96.5957 835.455 98.418 834.629 100.715 834.629C103.164 834.629 104.846 835.596 105.76 837.529C107.096 835.596 109 834.629 111.473 834.629C113.535 834.629 115.07 835.232 116.078 836.439C117.086 837.635 117.59 839.439 117.59 841.854V854H112.492V841.871C112.492 840.793 112.281 840.008 111.859 839.516C111.438 839.012 110.693 838.76 109.627 838.76C108.104 838.76 107.049 839.486 106.463 840.939L106.48 854H101.4V841.889C101.4 840.787 101.184 839.99 100.75 839.498C100.316 839.006 99.5781 838.76 98.5352 838.76C97.0938 838.76 96.0508 839.357 95.4062 840.553V854H90.3262V834.98H95.0898ZM138.631 844.666C138.631 847.596 137.963 849.945 136.627 851.715C135.303 853.473 133.51 854.352 131.248 854.352C129.326 854.352 127.773 853.684 126.59 852.348V861.312H121.51V834.98H126.221L126.396 836.844C127.627 835.367 129.232 834.629 131.213 834.629C133.557 834.629 135.379 835.496 136.68 837.23C137.98 838.965 138.631 841.355 138.631 844.402V844.666ZM133.551 844.297C133.551 842.527 133.234 841.162 132.602 840.201C131.98 839.24 131.072 838.76 129.877 838.76C128.283 838.76 127.188 839.369 126.59 840.588V848.375C127.211 849.629 128.318 850.256 129.912 850.256C132.338 850.256 133.551 848.27 133.551 844.297ZM141.004 844.314C141.004 842.428 141.367 840.746 142.094 839.27C142.82 837.793 143.863 836.65 145.223 835.842C146.594 835.033 148.182 834.629 149.986 834.629C152.553 834.629 154.645 835.414 156.262 836.984C157.891 838.555 158.799 840.688 158.986 843.383L159.021 844.684C159.021 847.602 158.207 849.945 156.578 851.715C154.949 853.473 152.764 854.352 150.021 854.352C147.279 854.352 145.088 853.473 143.447 851.715C141.818 849.957 141.004 847.566 141.004 844.543V844.314ZM146.084 844.684C146.084 846.488 146.424 847.871 147.104 848.832C147.783 849.781 148.756 850.256 150.021 850.256C151.252 850.256 152.213 849.787 152.904 848.85C153.596 847.9 153.941 846.389 153.941 844.314C153.941 842.545 153.596 841.174 152.904 840.201C152.213 839.229 151.24 838.742 149.986 838.742C148.744 838.742 147.783 839.229 147.104 840.201C146.424 841.162 146.084 842.656 146.084 844.684ZM172.838 839.744C172.146 839.65 171.537 839.604 171.01 839.604C169.088 839.604 167.828 840.254 167.23 841.555V854H162.15V834.98H166.949L167.09 837.248C168.109 835.502 169.521 834.629 171.326 834.629C171.889 834.629 172.416 834.705 172.908 834.857L172.838 839.744ZM182.26 830.305V834.98H185.512V838.707H182.26V848.199C182.26 848.902 182.395 849.406 182.664 849.711C182.934 850.016 183.449 850.168 184.211 850.168C184.773 850.168 185.271 850.127 185.705 850.045V853.895C184.709 854.199 183.684 854.352 182.629 854.352C179.066 854.352 177.25 852.553 177.18 848.955V838.707H174.402V834.98H177.18V830.305H182.26ZM197.096 854.352C194.307 854.352 192.033 853.496 190.275 851.785C188.529 850.074 187.656 847.795 187.656 844.947V844.455C187.656 842.545 188.025 840.84 188.764 839.34C189.502 837.828 190.545 836.668 191.893 835.859C193.252 835.039 194.799 834.629 196.533 834.629C199.135 834.629 201.18 835.449 202.668 837.09C204.168 838.73 204.918 841.057 204.918 844.068V846.143H192.807C192.971 847.385 193.463 848.381 194.283 849.131C195.115 849.881 196.164 850.256 197.43 850.256C199.387 850.256 200.916 849.547 202.018 848.129L204.514 850.924C203.752 852.002 202.721 852.846 201.42 853.455C200.119 854.053 198.678 854.352 197.096 854.352ZM196.516 838.742C195.508 838.742 194.688 839.082 194.055 839.762C193.434 840.441 193.035 841.414 192.859 842.68H199.926V842.275C199.902 841.15 199.598 840.283 199.012 839.674C198.426 839.053 197.594 838.742 196.516 838.742ZM91.4512 886.314C91.4512 883.326 92.1133 880.965 93.4375 879.23C94.7734 877.496 96.6016 876.629 98.9219 876.629C100.961 876.629 102.584 877.408 103.791 878.967L104.125 876.98H108.59V903.312H103.492V894.365C102.32 895.689 100.785 896.352 98.8867 896.352C96.625 896.352 94.8203 895.473 93.4727 893.715C92.125 891.957 91.4512 889.49 91.4512 886.314ZM96.5312 886.684C96.5312 888.5 96.8477 889.883 97.4805 890.832C98.125 891.781 99.0273 892.256 100.188 892.256C101.746 892.256 102.848 891.635 103.492 890.393V882.535C102.859 881.34 101.77 880.742 100.223 880.742C99.0508 880.742 98.1426 881.217 97.498 882.166C96.8535 883.115 96.5312 884.621 96.5312 886.684ZM123.988 894.066C122.734 895.59 121 896.352 118.785 896.352C116.746 896.352 115.188 895.766 114.109 894.594C113.043 893.422 112.498 891.705 112.475 889.443V876.98H117.555V889.268C117.555 891.248 118.457 892.238 120.262 892.238C121.984 892.238 123.168 891.641 123.812 890.445V876.98H128.91V896H124.129L123.988 894.066ZM131.951 886.314C131.951 884.428 132.314 882.746 133.041 881.27C133.768 879.793 134.811 878.65 136.17 877.842C137.541 877.033 139.129 876.629 140.934 876.629C143.5 876.629 145.592 877.414 147.209 878.984C148.838 880.555 149.746 882.688 149.934 885.383L149.969 886.684C149.969 889.602 149.154 891.945 147.525 893.715C145.896 895.473 143.711 896.352 140.969 896.352C138.227 896.352 136.035 895.473 134.395 893.715C132.766 891.957 131.951 889.566 131.951 886.543V886.314ZM137.031 886.684C137.031 888.488 137.371 889.871 138.051 890.832C138.73 891.781 139.703 892.256 140.969 892.256C142.199 892.256 143.16 891.787 143.852 890.85C144.543 889.9 144.889 888.389 144.889 886.314C144.889 884.545 144.543 883.174 143.852 882.201C143.16 881.229 142.188 880.742 140.934 880.742C139.691 880.742 138.73 881.229 138.051 882.201C137.371 883.162 137.031 884.656 137.031 886.684ZM158.459 896H153.361V876.98H158.459V896ZM153.062 872.059C153.062 871.297 153.314 870.67 153.818 870.178C154.334 869.686 155.031 869.439 155.91 869.439C156.777 869.439 157.469 869.686 157.984 870.178C158.5 870.67 158.758 871.297 158.758 872.059C158.758 872.832 158.494 873.465 157.967 873.957C157.451 874.449 156.766 874.695 155.91 874.695C155.055 874.695 154.363 874.449 153.836 873.957C153.32 873.465 153.062 872.832 153.062 872.059Z" fill="#E6E6E6"/>
<path d="M134.41 678.898C129.996 683.234 124.84 685.402 118.941 685.402C111.402 685.402 105.367 682.824 100.836 677.668C96.3047 672.473 94.0391 665.48 94.0391 656.691C94.0391 651.105 95.25 645.988 97.6719 641.34C100.133 636.652 103.551 633.02 107.926 630.441C112.301 627.824 117.223 626.516 122.691 626.516C128.316 626.516 133.316 627.922 137.691 630.734C142.066 633.547 145.465 637.59 147.887 642.863C150.309 648.137 151.539 654.172 151.578 660.969V667.238C151.578 681.457 148.043 692.629 140.973 700.754C133.902 708.879 123.883 713.215 110.914 713.762L106.754 713.82V699.699L110.504 699.641C125.23 698.977 133.199 692.062 134.41 678.898ZM123.102 672.453C125.836 672.453 128.18 671.75 130.133 670.344C132.125 668.938 133.629 667.238 134.645 665.246V658.273C134.645 652.531 133.551 648.078 131.363 644.914C129.176 641.75 126.246 640.168 122.574 640.168C119.176 640.168 116.383 641.73 114.195 644.855C112.008 647.941 110.914 651.828 110.914 656.516C110.914 661.164 111.969 664.992 114.078 668C116.227 670.969 119.234 672.453 123.102 672.453Z" fill="#E6E6E6"/>
<rect x="218" y="402" width="251" height="11" rx="5.5" fill="#19313A"/>
<rect x="430" y="458" width="39" height="11" rx="5.5" fill="#19313A"/>
<rect x="218" y="458" width="198" height="11" rx="5.5" fill="#19313A"/>
<rect x="324" y="430" width="145" height="11" rx="5.5" fill="#19313A"/>
<rect x="218" y="430" width="88" height="11" rx="5.5" fill="#19313A"/>
</svg>
